<svg width="72" height="72" viewBox="0 0 72 72" fill="none" xmlns="http://www.w3.org/2000/svg">
<g clip-path="url(#clip0_71_469)">
<path d="M56 0H16C7.16344 0 0 7.16344 0 16V56C0 64.8366 7.16344 72 16 72H56C64.8366 72 72 64.8366 72 56V16C72 7.16344 64.8366 0 56 0Z" fill="#4271F0"/>
<path d="M59.888 21.8744V36.7902L57.961 35.675L55.5666 34.2892L53.6478 33.1822L51.073 31.6816L40.5114 25.5644L36.5754 23.2848L32.0162 25.9334L27.703 28.4262L23.3898 25.9334L27.703 23.4324L32.2622 20.792L36.5754 18.291L40.8886 20.792L44.8246 23.0716L51.073 26.6878L55.5666 29.2954V19.3652L59.888 21.8744Z" fill="white" fill-opacity="0.9"/>
<path d="M51.073 16.7658V21.7596L49.0804 20.6034L45.1444 18.3238L40.8312 15.8228L35.944 12.9938L31.6882 15.462L27.375 17.9548L22.8158 20.6034L20.6428 21.858L18.5026 23.0962L16.3214 24.3672V26.7124L19.1832 28.3688L20.6428 29.2134L23.4964 30.8698L27.4324 33.1494L40.5688 40.759L36.2556 43.2518L23.1192 35.6422L20.6428 34.2072L19.1832 33.3626L16.3214 31.7062L14.87 30.8698L12 29.2052V21.8744L14.1976 20.6034L16.3214 19.3734L18.5026 18.1024L20.6428 16.8642L23.07 15.462L27.375 12.961L31.639 10.501L35.944 8L40.2572 10.501L45.1444 13.33L49.4494 15.8228L51.073 16.7658Z" fill="white"/>
<path d="M59.888 42.0791V49.5657L55.5666 52.0667L51.073 54.6743L48.736 56.0273L44.4228 58.5283L40.167 60.9965H40.1588L35.8538 63.4893L31.5406 60.9965L27.211 58.4873L20.6428 54.6825V49.6887L22.906 50.9925L27.211 53.4935H27.2192L31.5242 55.9863L35.8538 58.4955L40.1096 56.0273L44.4228 53.5263L49.2034 50.7547L51.073 49.6805L55.5666 47.0729V44.5719L53.4018 43.3173L51.073 41.9643L49.0886 40.8163L44.7754 38.3235L31.639 30.7057L35.9522 28.2129L49.0886 35.8225L51.073 36.9705L53.4018 38.3235L55.5666 39.5781L57.7068 40.8163L59.888 42.0791Z" fill="white" fill-opacity="0.9"/>
<path d="M49.187 45.7528L44.882 48.2538L40.1014 51.0254L35.7882 53.5182L27.1618 48.5244L20.6428 44.7442L16.3214 42.2432V52.1734L12 49.6724V34.7402L14.4026 36.1342L16.3214 37.2494L18.3386 38.4138L20.6428 39.7504L31.475 46.0234L35.7882 48.5244L40.5688 45.7528L44.882 43.26L49.187 45.7528Z" fill="white"/>
</g>
<defs>
<clipPath id="clip0_71_469">
<rect width="72" height="72" fill="white"/>
</clipPath>
</defs>
</svg>
