<?xml version="1.0" encoding="UTF-8"?><svg id="a" xmlns="http://www.w3.org/2000/svg" viewBox="0 0 1330.4 449.5"><defs><style>.b{fill:#c71a1a;}.c{fill:#1e1e1c;}</style></defs><path class="c" d="M16.5,132.4H1c-.3-1.3-.6-2.8-.7-4.4-.2-1.7-.2-3.3-.2-4.9s0-3.2,.2-4.9c.2-1.7,.4-3.1,.7-4.4H39.7v122.8c-1.8,.3-3.7,.6-5.9,.7-2.2,.2-4.1,.2-5.9,.2s-3.5,0-5.6-.2c-2.2-.2-4.1-.4-5.9-.7v-104.1Z"/><path class="b" d="M9.9,25.1c-.3-1.9-.5-4-.6-6.2,0-2.2-.1-4.2-.1-6s0-3.7,.1-6c0-2.2,.3-4.2,.6-6,2.1-.3,4.3-.6,6.7-.7,2.4-.2,4.5-.2,6.2-.2s3.8,0,6.2,.2c2.4,.2,4.5,.4,6.5,.7,.3,1.8,.5,3.7,.6,6,0,2.2,.1,4.2,.1,6s0,3.7-.1,6c0,2.2-.3,4.3-.6,6.2-1.9,.3-4,.6-6.3,.7-2.3,.2-4.3,.2-6.1,.2s-4.1,0-6.5-.2c-2.4-.2-4.6-.4-6.7-.7Z"/><path class="b" d="M9.9,78.1c-.3-1.9-.5-4-.6-6.2,0-2.2-.1-4.2-.1-6s0-3.7,.1-6c0-2.2,.3-4.2,.6-6,2.1-.3,4.3-.6,6.7-.7,2.4-.2,4.5-.2,6.2-.2s3.8,0,6.2,.2c2.4,.2,4.5,.4,6.5,.7,.3,1.8,.5,3.7,.6,6,0,2.2,.1,4.2,.1,6s0,3.7-.1,6c0,2.2-.3,4.3-.6,6.2-1.9,.3-4,.6-6.3,.7-2.3,.2-4.3,.2-6.1,.2s-4.1,0-6.5-.2c-2.4-.2-4.6-.4-6.7-.7Z"/><path class="c" d="M74.4,113.8c1.8-.3,3.5-.6,5.1-.7,1.7-.2,3.4-.2,5.1-.2s3.4,0,4.9,.2c1.5,.2,3.1,.4,4.9,.7,.5,2.4,1,5.6,1.4,9.7,.5,4.1,.7,7.5,.7,10.2,1.6-2.7,3.6-5.4,6.1-8.1,2.5-2.7,5.3-5.1,8.5-7.3,3.2-2.2,6.9-3.9,11-5.3,4.1-1.4,8.7-2,13.6-2,14,0,24.4,4,31.1,12.1,6.7,8.1,10.1,20,10.1,35.8v77.8c-1.8,.3-3.7,.6-6,.7-2.2,.2-4.2,.2-6,.2s-3.7,0-5.9-.2c-2.2-.2-4.1-.4-5.9-.7v-71.3c0-11.3-1.8-19.7-5.3-25-3.5-5.3-9.1-8-16.8-8s-8.7,.8-12.7,2.4c-4,1.6-7.5,4.1-10.5,7.4-3,3.4-5.5,7.7-7.3,13-1.8,5.3-2.8,11.8-2.8,19.3v62.2c-1.8,.3-3.7,.6-5.9,.7-2.2,.2-4.1,.2-5.9,.2s-3.8,0-6-.2c-2.2-.2-4.2-.4-6-.7V113.8Z"/><path class="c" d="M211.8,61.1c1.8-.3,3.7-.6,5.9-.7,2.2-.2,4.1-.2,5.9-.2s3.7,0,6,.2c2.2,.2,4.2,.4,6,.7V236.5c-1.8,.3-3.8,.6-6,.7-2.2,.2-4.2,.2-6,.2s-3.7,0-5.9-.2c-2.2-.2-4.1-.4-5.9-.7V61.1Zm30.2,111.8l39-59.1c2.1-.3,4.1-.6,6.2-.7,2.1-.2,4.2-.2,6.5-.2s4.7,0,6.8,.2c2.2,.2,4.3,.4,6.6,.7l-39,57.4,45.7,65.3c-2.2,.3-4.4,.6-6.5,.7-2.1,.2-4.2,.2-6.5,.2s-4.5,0-6.7-.2c-2.2-.2-4.5-.4-6.7-.7l-45.5-63.7Z"/><path class="c" d="M399.4,155.6c0-9.4-2.4-16-7.2-19.6-4.8-3.7-11.7-5.5-20.8-5.5s-10.8,.4-15.7,1.3c-4.9,.9-9.6,2-14.2,3.5-3-5.3-4.5-11.6-4.5-18.9,5.4-1.8,11.4-3.1,18-4.1,6.5-1,12.8-1.4,18.9-1.4,16,0,28.1,3.6,36.4,10.9,8.3,7.3,12.4,18.9,12.4,34.8v76.8c-5.6,1.3-12.4,2.6-20.3,3.9-8,1.4-16.1,2-24.4,2s-14.9-.7-21.2-2.2c-6.3-1.4-11.6-3.7-16-6.9-4.4-3.2-7.8-7.3-10.2-12.2-2.4-4.9-3.6-10.9-3.6-18s1.4-12.9,4.2-18.1c2.8-5.2,6.6-9.5,11.4-12.9,4.8-3.4,10.3-6,16.5-7.7,6.2-1.7,12.8-2.5,19.6-2.5s9.3,.1,12.6,.4c3.3,.2,6,.5,8.3,.8v-4.5Zm0,23.2c-2.4-.3-5.4-.6-9.1-1-3.7-.3-6.8-.5-9.3-.5-9.9,0-17.4,1.8-22.6,5.5-5.2,3.7-7.8,9.3-7.8,16.8s.9,8.5,2.6,11.2c1.8,2.7,3.9,4.8,6.6,6.2,2.6,1.4,5.5,2.3,8.7,2.6,3.2,.3,6.2,.5,9.1,.5s7.5-.2,11.4-.6c3.9-.4,7.4-1,10.4-1.8v-39Z"/><path class="c" d="M456.2,214.3c4.3,1.8,9.1,3.2,14.2,4.2,5.2,1,10.3,1.6,15.4,1.6s7.2-.4,10.5-1.2c3.4-.8,6.3-2,8.7-3.6,2.5-1.6,4.5-3.5,6-5.9,1.5-2.3,2.3-4.9,2.3-7.8s-.6-5.8-1.8-7.9c-1.2-2.1-2.8-3.8-4.8-5.3-2-1.4-4.3-2.7-6.9-3.7-2.6-1-5.5-2-8.5-3l-8.4-3.1c-10.2-3.8-17.6-8.1-22.3-12.9-4.6-4.8-6.9-11.2-6.9-19.4s3.9-19.5,11.6-25.8c7.7-6.4,19.1-9.6,34.1-9.6s12.3,.6,18.3,1.8c6,1.2,11.2,2.6,15.7,4.2-.3,3.2-.9,6.4-1.8,9.6-.9,3.2-2,6.1-3.2,8.9-3.5-1.3-7.7-2.5-12.6-3.7-4.9-1.2-10.1-1.8-15.7-1.8s-11.1,1-15.7,3.1c-4.5,2.1-6.8,5.7-6.8,11s.6,5,1.7,6.9c1.1,1.9,2.6,3.6,4.5,4.9,1.9,1.4,4.1,2.5,6.6,3.5,2.5,1,5.1,1.9,8,2.9l10.5,3.6c3.8,1.3,7.5,2.8,10.9,4.5,3.4,1.8,6.4,3.9,8.9,6.6,2.5,2.6,4.5,5.8,6,9.6,1.5,3.8,2.3,8.3,2.3,13.5s-1.2,11.3-3.6,16.2c-2.4,4.9-5.8,9-10.2,12.4-4.4,3.4-9.7,6.1-15.9,8-6.2,1.9-13.1,2.9-20.6,2.9s-14.4-.5-20.1-1.6c-5.7-1-11.1-2.4-16-4.2,.3-3.2,1-6.4,2-9.7,1-3.3,2.2-6.5,3.5-9.7Z"/><path class="c" d="M558.8,214.3c4.3,1.8,9.1,3.2,14.2,4.2,5.2,1,10.3,1.6,15.4,1.6s7.2-.4,10.5-1.2c3.4-.8,6.3-2,8.7-3.6,2.5-1.6,4.5-3.5,6-5.9,1.5-2.3,2.3-4.9,2.3-7.8s-.6-5.8-1.8-7.9c-1.2-2.1-2.8-3.8-4.8-5.3-2-1.4-4.3-2.7-6.9-3.7-2.6-1-5.5-2-8.5-3l-8.4-3.1c-10.2-3.8-17.6-8.1-22.3-12.9-4.6-4.8-6.9-11.2-6.9-19.4s3.9-19.5,11.6-25.8c7.7-6.4,19.1-9.6,34.1-9.6s12.3,.6,18.3,1.8c6,1.2,11.2,2.6,15.7,4.2-.3,3.2-.9,6.4-1.8,9.6-.9,3.2-2,6.1-3.2,8.9-3.5-1.3-7.7-2.5-12.6-3.7-4.9-1.2-10.1-1.8-15.7-1.8s-11.1,1-15.7,3.1c-4.5,2.1-6.8,5.7-6.8,11s.6,5,1.7,6.9c1.1,1.9,2.6,3.6,4.5,4.9,1.9,1.4,4.1,2.5,6.6,3.5,2.5,1,5.1,1.9,8,2.9l10.5,3.6c3.8,1.3,7.5,2.8,10.9,4.5,3.4,1.8,6.4,3.9,8.9,6.6,2.5,2.6,4.5,5.8,6,9.6,1.5,3.8,2.3,8.3,2.3,13.5s-1.2,11.3-3.6,16.2c-2.4,4.9-5.8,9-10.2,12.4-4.4,3.4-9.7,6.1-15.9,8-6.2,1.9-13.1,2.9-20.6,2.9s-14.4-.5-20.1-1.6c-5.7-1-11.1-2.4-16-4.2,.3-3.2,1-6.4,2-9.7,1-3.3,2.2-6.5,3.5-9.7Z"/><path class="c" d="M719.7,239.4c-9.6,0-18-1.6-25.1-4.9-7.2-3.3-13.2-7.8-17.9-13.5-4.8-5.7-8.3-12.5-10.7-20.3-2.3-7.8-3.5-16.3-3.5-25.4s1.2-17.6,3.5-25.4c2.3-7.8,5.9-14.6,10.7-20.3,4.8-5.7,10.8-10.3,17.9-13.6,7.2-3.4,15.6-5,25.1-5s17.9,1.7,25.1,5c7.2,3.3,13.2,7.9,18,13.6,4.8,5.7,8.3,12.5,10.6,20.3,2.3,7.8,3.5,16.3,3.5,25.4s-1.2,17.6-3.5,25.4c-2.3,7.8-5.9,14.6-10.6,20.3-4.8,5.7-10.8,10.3-18,13.5-7.2,3.3-15.6,4.9-25.1,4.9Zm0-18.9c11,0,19.1-4,24.4-12,5.3-8,7.9-19.1,7.9-33.3s-2.6-25.2-7.9-33.1c-5.3-7.9-13.4-11.8-24.4-11.8s-19.1,3.9-24.3,11.8c-5.2,7.9-7.8,18.9-7.8,33.1s2.6,25.3,7.8,33.3c5.2,8,13.3,12,24.3,12Z"/><path class="c" d="M268.5,267.2c1.8-.3,3.5-.6,5.1-.7,1.7-.2,3.4-.2,5.1-.2s3.4,0,4.9,.2c1.5,.2,3.1,.4,4.9,.7,.5,2.4,1,5.5,1.4,9.5,.5,3.9,.7,7.2,.7,9.9,1.4-2.9,3.2-5.6,5.4-8.3,2.2-2.6,4.7-5,7.7-7.1,2.9-2.1,6.3-3.7,10.2-5,3.8-1.3,8.1-1.9,12.7-1.9,9.6,0,17,2,22.1,5.9,5.2,3.9,9.1,9.4,11.8,16.4,1.6-2.7,3.5-5.4,5.9-8.1,2.3-2.7,4.9-5.1,7.8-7.2,2.9-2.1,6.1-3.7,9.8-5,3.7-1.3,7.8-1.9,12.4-1.9,14.2,0,24.5,4,31,12,6.5,8,9.7,19.8,9.7,35.4v78.3c-1.8,.3-3.7,.6-6,.7-2.2,.2-4.2,.2-6,.2s-3.7,0-5.9-.2c-2.2-.2-4.1-.4-5.9-.7v-71.3c0-11-1.7-19.3-5-24.8-3.3-5.5-8.9-8.3-16.5-8.3s-14.7,3-19.7,8.9c-5,5.9-7.5,14.6-7.5,26.1v69.4c-1.8,.3-3.7,.6-5.9,.7-2.2,.2-4.1,.2-5.9,.2s-3.7,0-5.9-.2c-2.2-.2-4.1-.4-5.9-.7v-73c0-10.7-1.6-18.7-4.8-24.1-3.2-5.3-8.3-8-15.3-8s-7.7,.9-11.2,2.6c-3.5,1.8-6.6,4.4-9.2,7.9-2.6,3.5-4.7,7.9-6.2,13.3-1.5,5.3-2.3,11.5-2.3,18.5v62.7c-1.8,.3-3.7,.6-5.9,.7-2.2,.2-4.1,.2-5.9,.2s-3.8,0-6-.2c-2.2-.2-4.2-.4-6-.7v-122.8Z"/><path class="b" d="M536.6,309.1c0-9.4-2.3-16-6.9-19.6-4.6-3.7-11.5-5.5-20.6-5.5s-10.7,.4-15.7,1.3c-5,.9-9.8,2-14.2,3.5-3-5.3-4.5-11.6-4.5-18.9,5.4-1.8,11.4-3.1,17.8-4.1,6.5-1,12.8-1.4,19-1.4,9.6,0,17.6,1.6,24.1,4.7,6.5,3.1,11.8,7.9,16.2,14.5,4.5-5.7,10.1-10.4,16.8-13.9,6.7-3.5,14.5-5.3,23.5-5.3s15.6,1.4,21.9,4.3c6.3,2.9,11.6,6.8,15.9,11.8,4.3,5,7.5,11,9.7,18,2.2,6.9,3.2,14.5,3.2,22.6s0,4.3-.2,6.8c-.2,2.5-.4,4.6-.7,6.3h-82.1c0,14,3.3,24.1,9.8,30,6.5,6,16.5,9,29.9,9s11.1-.5,16.2-1.6c5-1,10.1-2.5,15.2-4.4,1.1,2.4,2.1,5.3,2.9,8.7,.8,3.4,1.3,6.8,1.4,10.2-10.8,4.5-23.5,6.7-37.8,6.7s-16-.9-23.2-2.8c-7.2-1.8-13.4-4.8-18.7-9-5.1,3.2-11.5,5.9-19,8.3-7.6,2.3-15.8,3.5-24.5,3.5s-13.2-.7-19-2.2c-5.8-1.4-10.8-3.7-15-6.9-4.2-3.2-7.4-7.3-9.8-12.2-2.4-4.9-3.6-10.9-3.6-18s1.4-12.8,4.2-18c2.8-5.1,6.6-9.3,11.4-12.7,4.8-3.4,10.3-5.9,16.5-7.5,6.2-1.7,12.8-2.5,19.9-2.5s7.9,.1,11.3,.4c3.3,.2,6.4,.5,9.1,.8v-5Zm-.5,23.9c-2.4-.3-5.1-.6-8.1-.8-3-.2-5.9-.4-8.6-.4-10.1,0-17.8,1.7-23.1,5.1-5.3,3.4-8,9.1-8,16.9s.9,8.3,2.6,11c1.8,2.7,3.9,4.7,6.5,6.1,2.5,1.4,5.3,2.2,8.3,2.6,3,.4,5.7,.6,8.3,.6,5.1,0,10.3-.6,15.6-1.7,5.3-1.1,9.8-3,13.6-5.7-2.2-3.8-3.9-8.3-4.9-13.5-1-5.2-1.6-10.4-1.8-15.7l-.2-4.5Zm83.5-16.5c0-4.5-.6-8.7-1.7-12.8-1.1-4.1-2.8-7.6-5.1-10.7-2.3-3-5.2-5.4-8.7-7.2-3.5-1.8-7.7-2.6-12.4-2.6-9.9,0-17.4,2.9-22.5,8.7-5.1,5.8-8.2,14-9.3,24.5h59.8Z"/><path class="c" d="M738.3,374.2c14.2,.3,24.5,3.3,30.9,9.1,6.4,5.7,9.6,13.6,9.6,23.7s-1.7,12.4-5,17.6c-3.4,5.2-8,9.7-13.9,13.4-5.9,3.7-12.9,6.6-20.9,8.6-8.1,2-16.8,3-26.2,3-16.4,0-29-2.6-37.6-7.7-8.6-5.1-12.9-13.2-12.9-24.2s1.8-12.4,5.3-17.6c3.5-5.2,8.1-9.3,13.6-12.3-3.2-2.1-5.9-4.7-8-7.8-2.2-3.1-3.2-7-3.2-11.6s1.3-11,4-15.3c2.6-4.3,6.2-8.1,10.6-11.5-5.3-3.7-9.5-8.4-12.7-14.2-3.2-5.8-4.8-12.4-4.8-19.7s1.1-11.7,3.4-17c2.2-5.3,5.5-9.8,9.7-13.8,4.2-3.9,9.5-7,15.7-9.2,6.2-2.2,13.3-3.3,21.3-3.3s13.7,1,19.5,3.1c5.8,2.1,10.8,4.7,15,7.9,3.2-2.6,7.5-4.7,12.9-6.3,5.4-1.7,11.4-2.5,17.9-2.5,.6,3,1,6.4,1,10.1s0,3.6-.2,5.5c-.2,1.9-.4,3.8-.7,5.7h-21.5c1.8,2.7,3.1,5.7,4.1,8.9,1,3.2,1.4,6.9,1.4,11,0,6.5-1.2,12.4-3.6,17.7-2.4,5.3-5.8,9.8-10.2,13.5-4.4,3.7-9.6,6.6-15.7,8.6-6.1,2-12.7,3-19.9,3s-12.4-.7-17.7-2.2c-2.2,1.3-4.4,3.2-6.6,5.9-2.2,2.6-3.2,5.5-3.2,8.5s1,5.4,3.1,7.5c2.1,2.2,6.7,3.3,13.9,3.5l31.8,.5Zm-32.3,18.9c-7.2-.2-12.6,1.8-16.2,5.7-3.6,4-5.4,8.8-5.4,14.4s.7,6.4,2.2,8.6c1.4,2.2,3.5,4,6.1,5.4,2.6,1.4,5.7,2.3,9.3,2.9,3.6,.6,7.5,.8,11.8,.8,12.8,0,22.7-2.1,29.9-6.3,7.2-4.2,10.8-9.5,10.8-15.9s-1.5-8.5-4.5-11c-3-2.6-8.6-3.9-16.8-4.1l-27.3-.5Zm11-59.8c8.6,0,15-2.4,19.1-7.2,4.1-4.8,6.2-10.9,6.2-18.4s-2.1-13.9-6.2-18.8c-4.2-4.9-10.5-7.3-19.1-7.3s-15,2.4-19,7.3c-4.1,4.9-6.1,11.1-6.1,18.8s2,13.6,6.1,18.4c4.1,4.8,10.4,7.2,19,7.2Z"/><path class="c" d="M804.4,214.5c1.8-.3,3.7-.6,5.9-.7,2.2-.2,4.1-.2,5.9-.2s3.7,0,5.9,.2c2.2,.2,4.1,.4,5.9,.7v138.3c0,4.5,.4,8,1.2,10.5,.8,2.6,1.9,4.5,3.2,5.9,1.4,1.4,3,2.2,4.8,2.6,1.8,.4,3.8,.6,5.9,.6s3.1,0,4.9-.2c1.8-.2,3.4-.4,4.7-.7,1.4,5.6,2.2,11.6,2.2,18.2-2.2,.8-4.9,1.3-8.1,1.6-3.2,.2-6.1,.4-8.9,.4-4.6,0-8.9-.6-12.9-1.7-4-1.1-7.5-2.9-10.5-5.5-3-2.6-5.4-6-7.2-10.3-1.8-4.3-2.6-9.7-2.6-16V214.5Z"/><path class="c" d="M893.9,334.4c.3,13.4,3.8,23.2,10.4,29.4,6.6,6.2,16.4,9.3,29.3,9.3s22.1-2,32.3-6c1.3,2.4,2.3,5.3,3.1,8.7,.8,3.4,1.3,6.8,1.4,10.2-5.3,2.2-11.1,3.9-17.4,5-6.3,1.1-13.3,1.7-20.9,1.7-11.2,0-20.7-1.6-28.7-4.7-8-3.1-14.6-7.5-19.7-13.2-5.2-5.7-9-12.4-11.4-20.1-2.4-7.7-3.6-16.2-3.6-25.5s1.2-17.6,3.5-25.5c2.3-7.9,5.9-14.8,10.6-20.6,4.8-5.8,10.8-10.4,18.1-13.9,7.3-3.4,15.8-5.1,25.7-5.1s15.9,1.4,22.3,4.3c6.4,2.9,11.7,6.8,16,11.8,4.3,5,7.6,11,9.8,18,2.2,6.9,3.4,14.5,3.4,22.6s0,4.6-.2,7.1c-.2,2.5-.3,4.6-.5,6.3h-83.5Zm60.8-17.7c0-4.5-.6-8.7-1.8-12.8s-3-7.6-5.3-10.7c-2.3-3-5.3-5.5-8.9-7.3-3.6-1.8-7.9-2.8-12.8-2.8-9.7,0-17.2,3-22.4,8.9-5.2,5.9-8.3,14.1-9.4,24.7h60.6Z"/><path class="c" d="M1009.3,267.2c1.8-.3,3.4-.6,5-.7,1.6-.2,3.3-.2,5-.2s3.5,0,5.3,.2c1.8,.2,3.4,.4,4.8,.7,.5,2.4,1,5.5,1.4,9.5,.5,3.9,.7,7.2,.7,9.9,3.4-5.4,7.8-10.1,13.3-14.1,5.5-4,12.6-6,21.2-6s2.6,0,4,.1c1.4,0,2.5,.2,3.5,.4,.3,1.4,.6,3,.7,4.5,.2,1.6,.2,3.3,.2,5s-.1,3.9-.4,6c-.2,2.1-.5,4.1-.8,6-1.3-.3-2.6-.5-4-.5h-3.2c-4.3,0-8.4,.6-12.3,1.8-3.9,1.2-7.4,3.3-10.5,6.3-3.1,3-5.6,7.2-7.4,12.4-1.8,5.3-2.8,12-2.8,20.3v61c-1.8,.3-3.7,.6-5.9,.7-2.2,.2-4.1,.2-5.9,.2s-3.7,0-5.9-.2c-2.2-.2-4.2-.4-6.1-.7v-122.8Z"/><path class="c" d="M1112.4,334.4c.3,13.4,3.8,23.2,10.4,29.4,6.6,6.2,16.4,9.3,29.3,9.3s22.1-2,32.3-6c1.3,2.4,2.3,5.3,3.1,8.7,.8,3.4,1.3,6.8,1.4,10.2-5.3,2.2-11.1,3.9-17.4,5-6.3,1.1-13.3,1.7-20.9,1.7-11.2,0-20.7-1.6-28.7-4.7-8-3.1-14.6-7.5-19.7-13.2-5.2-5.7-9-12.4-11.4-20.1-2.4-7.7-3.6-16.2-3.6-25.5s1.2-17.6,3.5-25.5c2.3-7.9,5.9-14.8,10.6-20.6,4.8-5.8,10.8-10.4,18.1-13.9,7.3-3.4,15.8-5.1,25.7-5.1s15.9,1.4,22.3,4.3c6.4,2.9,11.7,6.8,16,11.8,4.3,5,7.6,11,9.8,18,2.2,6.9,3.4,14.5,3.4,22.6s0,4.6-.2,7.1c-.2,2.5-.3,4.6-.5,6.3h-83.5Zm60.8-17.7c0-4.5-.6-8.7-1.8-12.8-1.2-4.1-3-7.6-5.3-10.7-2.3-3-5.3-5.5-8.9-7.3-3.6-1.8-7.9-2.8-12.8-2.8-9.7,0-17.2,3-22.4,8.9-5.2,5.9-8.3,14.1-9.4,24.7h60.6Z"/><path class="c" d="M1227.8,267.2c1.8-.3,3.5-.6,5.1-.7,1.7-.2,3.4-.2,5.1-.2s3.4,0,4.9,.2c1.5,.2,3.2,.4,4.9,.7,.5,2.4,1,5.6,1.4,9.7,.5,4.1,.7,7.5,.7,10.2,1.6-2.7,3.6-5.4,6.1-8.1,2.5-2.7,5.3-5.1,8.5-7.3,3.2-2.2,6.9-3.9,11-5.3,4.1-1.4,8.7-2,13.6-2,14,0,24.4,4,31.1,12.1,6.7,8.1,10.1,20,10.1,35.8v77.8c-1.8,.3-3.7,.6-6,.7-2.2,.2-4.2,.2-6,.2s-3.7,0-5.9-.2c-2.2-.2-4.1-.4-5.9-.7v-71.3c0-11.3-1.8-19.7-5.3-25-3.5-5.3-9.1-8-16.7-8s-8.7,.8-12.7,2.4c-4,1.6-7.5,4.1-10.5,7.4-3,3.4-5.5,7.7-7.3,13-1.8,5.3-2.8,11.8-2.8,19.3v62.2c-1.8,.3-3.7,.6-5.9,.7-2.2,.2-4.1,.2-5.9,.2s-3.7,0-6-.2c-2.2-.2-4.2-.4-6-.7v-122.8Z"/></svg>