<svg width="101" height="25" viewBox="0 0 101 25" fill="none" xmlns="http://www.w3.org/2000/svg">
<path d="M38.973 23.9218C38.9656 20.6256 37.9467 17.9533 35.9447 15.9775C35.4186 15.4586 34.8248 14.9934 34.173 14.592C35.7956 12.126 35.7624 9.17113 35.7525 8.8235L35.7353 7.21413H30.7628L30.7345 8.9548C30.7443 9.50376 30.5718 11.2694 29.6835 12.151C29.3472 12.4849 28.8987 12.6812 28.3209 12.7463V1.92334H23.5259V24.4508H28.3209V17.902C29.3139 18.0083 31.1866 18.3772 32.4618 19.6489C33.4609 20.6443 33.9488 22.0461 33.9525 23.9343L33.9537 24.4395L38.973 24.4283V23.9218Z" fill="#EB98FF"/>
<path d="M5.70793 1.92334V19.1626H13.7698V24.4508H0.219727V1.92334H5.70793Z" fill="#EB98FF"/>
<path d="M15.3962 7.41797C16.0551 7.62525 16.9834 7.74262 18.2721 7.74262C19.5305 7.74262 20.4284 7.59528 21.0873 7.41797V24.4509H15.3962V7.41797V7.41797Z" fill="#EB98FF"/>
<path d="M37.0759 7.41797H42.5684L45.975 17.7846L49.4411 7.41797H54.9621L48.325 24.4509H43.3906L37.0759 7.41797ZM43.9784 23.6883V23.7181V23.6883Z" fill="#EB98FF"/>
<path d="M56.3179 7.41797C56.9768 7.62525 57.905 7.74262 59.1937 7.74262C60.4521 7.74262 61.35 7.59528 62.0089 7.41797V24.4509H56.3179V7.41797Z" fill="#EB98FF"/>
<path d="M64.177 15.9216V15.3919C64.177 9.67954 66.9778 7.02853 70.8279 6.99868C73.2777 6.99868 74.8529 7.99965 75.7286 9.70814V2.19775H80.9791V24.4019H76.4578L75.9331 21.4276C75.1165 23.4295 73.4242 24.7252 70.8279 24.7252C66.7438 24.7264 64.177 21.7521 64.177 15.9216ZM75.7853 15.8619V15.5088C75.7853 12.9175 74.5598 11.4452 72.6347 11.4452C70.6518 11.4452 69.5137 12.7993 69.5137 15.479V15.8619C69.5137 18.9245 70.7676 20.1618 72.5768 20.1618C74.5315 20.1618 75.7853 18.748 75.7853 15.8619Z" fill="#EB98FF"/>
<path d="M83.1467 16.3074V15.7701C83.1467 9.91536 86.707 6.86816 91.6685 6.86816C96.7471 6.86816 100.22 9.97464 100.22 15.7701V16.3074C100.22 22.0726 96.8346 25 91.6685 25C86.1833 25 83.1467 22.0726 83.1467 16.3074ZM94.938 16.2481V15.7701C94.938 12.9626 93.7709 11.4692 91.7277 11.4692C89.7436 11.4692 88.4299 12.873 88.4299 15.7701V16.2481C88.4299 18.9359 89.7436 20.3106 91.6698 20.3106C93.6539 20.3106 94.938 18.9661 94.938 16.2481Z" fill="#EB98FF"/>
<path d="M59.1634 6.31867C60.8846 6.31867 62.2799 4.90419 62.2799 3.15934C62.2799 1.41448 60.8846 0 59.1634 0C57.4422 0 56.0469 1.41448 56.0469 3.15934C56.0469 4.90419 57.4422 6.31867 59.1634 6.31867Z" fill="#EB98FF"/>
<path d="M18.2418 6.31867C19.963 6.31867 21.3583 4.90419 21.3583 3.15934C21.3583 1.41448 19.963 0 18.2418 0C16.5206 0 15.1252 1.41448 15.1252 3.15934C15.1252 4.90419 16.5206 6.31867 18.2418 6.31867Z" fill="#EB98FF"/>
</svg>
