<svg id="Layer_1" data-name="Layer 1" xmlns="http://www.w3.org/2000/svg" viewBox="0 0 566.93 85.04"><defs><style>.cls-1{fill:#2f1a45;}</style></defs><path class="cls-1" d="M4.6,29.52c0-9.21,7.3-14.61,23.11-14.61a60,60,0,0,1,18.1,2.58A3.09,3.09,0,0,1,48,20.75V25c0,2.14-1.24,2.89-3.26,2.18a51.19,51.19,0,0,0-15.64-2.26c-8,0-11.6,1.35-11.6,5.16,0,2.7,2,4.45,7.23,6.35l14.69,5.4C47.4,44.77,51,49.3,51,56.92c0,9.29-7.06,15.48-23.5,15.48A63,63,0,0,1,7.54,69.55a3.11,3.11,0,0,1-2.23-3.26V62c0-2.14,1.27-2.9,3.26-2.22a54.44,54.44,0,0,0,17.55,2.7C33.9,62.48,38,60.81,38,56.6c0-2.62-2.22-4.52-7.15-6.35l-14.69-5.4C7.54,41.67,4.6,37.46,4.6,29.52Z"/><path class="cls-1" d="M96.47,61.53l10.28-43.17a2.9,2.9,0,0,1,3.14-2.5H129a2.6,2.6,0,0,1,2.86,2.86V68.59A2.6,2.6,0,0,1,129,71.45h-7.23a2.59,2.59,0,0,1-2.86-2.86V25.87H117L106.67,69a2.93,2.93,0,0,1-3.14,2.5H87.81A2.93,2.93,0,0,1,84.67,69L74.23,25.87H72.48V68.59a2.59,2.59,0,0,1-2.85,2.86H62.32a2.59,2.59,0,0,1-2.86-2.86V18.72a2.6,2.6,0,0,1,2.86-2.86H81.38a2.9,2.9,0,0,1,3.14,2.5l10.2,43.17Z"/><path class="cls-1" d="M177.17,71.45H158.59a3.09,3.09,0,0,1-3.25-2.38L139.85,19.12c-.59-2,.32-3.26,2.38-3.26h7.39a3.07,3.07,0,0,1,3.22,2.43l12.54,43.24h5.08l12.47-43.24a3.07,3.07,0,0,1,3.22-2.43h7.46c2.07,0,3,1.27,2.39,3.26L180.43,69.07A3.11,3.11,0,0,1,177.17,71.45Z"/><path d="M241.73,68.35c-5.25,2.71-10.68,4.05-18.07,4.05-16,0-21.52-7.06-21.52-19.45V48.82c0-12.31,5.64-19.46,19.69-19.46a31.1,31.1,0,0,1,15.89,4.13V14.91a1.3,1.3,0,0,1,1.43-1.43h2.14a1.3,1.3,0,0,1,1.43,1.43V66.65A1.8,1.8,0,0,1,241.73,68.35ZM223.9,68a31.52,31.52,0,0,0,13.82-2.86V38.26a26.09,26.09,0,0,0-15-4.45c-11.36,0-15.49,5.48-15.49,15V53C207.22,62.56,211.27,68,223.9,68Z"/><path d="M251.52,59.22c0-8.34,5.25-12.86,17.63-12.86a48.86,48.86,0,0,1,17.47,3.25V46.36c0-8.74-4.2-12.55-15.88-12.55a32.6,32.6,0,0,0-13.1,2.54c-1,.48-1.67.08-1.67-1V33.57A1.65,1.65,0,0,1,257,31.9a38.45,38.45,0,0,1,14.66-2.54c14,0,20,5.56,20,15.89v21.4a1.63,1.63,0,0,1-.92,1.63A45.66,45.66,0,0,1,271,72.4C256.05,72.4,251.52,67.56,251.52,59.22Zm35.1,5.8V53.74a43.92,43.92,0,0,0-15.88-2.86c-10.24,0-14.13,2.54-14.13,8.34S260.34,68,271.14,68A39.74,39.74,0,0,0,286.62,65Z"/><path d="M305.36,71.45h-2.23A1.3,1.3,0,0,1,301.7,70V35.32a1.73,1.73,0,0,1,1.08-1.71,45.22,45.22,0,0,1,18.78-4.25c14,0,19.21,5.48,19.21,17.08V70a1.29,1.29,0,0,1-1.43,1.43h-2.22A1.3,1.3,0,0,1,335.69,70V47c0-9.37-4.05-13.18-15.09-13.18a33.85,33.85,0,0,0-13.81,2.94V70A1.3,1.3,0,0,1,305.36,71.45Z"/><path d="M355.06,71.45h-2.23A1.29,1.29,0,0,1,351.41,70V35.2a1.71,1.71,0,0,1,1-1.67A37.28,37.28,0,0,1,369,29.36c6.43,0,11,1.43,13.81,4.21a32.45,32.45,0,0,1,16.6-4.21c12.94,0,18.19,5.56,18.19,17.08V70a1.3,1.3,0,0,1-1.43,1.43H414A1.3,1.3,0,0,1,412.55,70V47.07c0-9.21-4.05-13.26-14.21-13.26a24.6,24.6,0,0,0-12.95,3.57A22.74,22.74,0,0,1,387,46.44V70a1.29,1.29,0,0,1-1.43,1.43h-2.14A1.3,1.3,0,0,1,382,70V47.07c0-9.37-3.89-13.26-14.14-13.26a24.11,24.11,0,0,0-11.35,2.94V70A1.3,1.3,0,0,1,355.06,71.45Z"/><path d="M426.36,59.22c0-8.34,5.24-12.86,17.63-12.86a48.94,48.94,0,0,1,17.47,3.25V46.36c0-8.74-4.21-12.55-15.89-12.55a32.6,32.6,0,0,0-13.1,2.54c-1,.48-1.67.08-1.67-1V33.57a1.64,1.64,0,0,1,1.08-1.67,38.36,38.36,0,0,1,14.65-2.54c14,0,20,5.56,20,15.89v21.4a1.63,1.63,0,0,1-.91,1.63,45.74,45.74,0,0,1-19.82,4.12C430.88,72.4,426.36,67.56,426.36,59.22Zm35.1,5.8V53.74a44,44,0,0,0-15.89-2.86c-10.24,0-14.13,2.54-14.13,8.34S435.17,68,446,68A39.82,39.82,0,0,0,461.46,65Z"/><path d="M508.06,36.43a30.31,30.31,0,0,0-12.78-2.54,32.56,32.56,0,0,0-13.66,2.86V70a1.3,1.3,0,0,1-1.43,1.43H478A1.29,1.29,0,0,1,476.54,70V35.28a1.69,1.69,0,0,1,1-1.67,44.48,44.48,0,0,1,18.58-4.25,30.24,30.24,0,0,1,12.55,2.43,1.68,1.68,0,0,1,1,1.66v1.91C509.73,36.43,509.06,36.87,508.06,36.43Z"/><path d="M519.33,71.45h-2.22A1.3,1.3,0,0,1,515.68,70V14.91a1.3,1.3,0,0,1,1.43-1.43h2.22a1.3,1.3,0,0,1,1.43,1.43V46.83h6.43c3.5,0,6.75-1.51,10.72-6.9l6.44-8.74a1.83,1.83,0,0,1,1.7-.87h3.18c1.19,0,1.59.79.87,1.74l-8.45,11.2a22.19,22.19,0,0,1-6.36,5.88A22.27,22.27,0,0,1,541.65,55L552.92,69.7c.72,1,.36,1.75-.83,1.75H549a2,2,0,0,1-1.75-.87l-9.33-12.31c-3.65-4.85-7.38-6.91-10.4-6.91h-6.75V70A1.29,1.29,0,0,1,519.33,71.45Z"/></svg>