<svg width="20" height="18" viewBox="0 0 20 18" fill="none" xmlns="http://www.w3.org/2000/svg">
<path d="M4.16113 2.00002C4.16087 2.53046 3.9499 3.03906 3.57464 3.41394C3.19938 3.78883 2.69057 3.99929 2.16013 3.99902C1.6297 3.99876 1.1211 3.78779 0.746212 3.41253C0.371327 3.03727 0.160868 2.52846 0.161133 1.99802C0.161398 1.46759 0.372366 0.958988 0.747627 0.584103C1.12289 0.209218 1.6317 -0.00124153 2.16213 -0.000976312C2.69257 -0.000711096 3.20117 0.210257 3.57605 0.585517C3.95094 0.960777 4.1614 1.46959 4.16113 2.00002V2.00002ZM4.22113 5.48002H0.221133V18H4.22113V5.48002ZM10.5411 5.48002H6.56113V18H10.5011V11.43C10.5011 7.77002 15.2711 7.43002 15.2711 11.43V18H19.2211V10.07C19.2211 3.90002 12.1611 4.13002 10.5011 7.16002L10.5411 5.48002V5.48002Z" fill="#8A95AD"/>
</svg>
